<svg width="168px" height="29px" viewBox="0 0 168 29" version="1.1" xmlns="http://www.w3.org/2000/svg" xmlns:xlink="http://www.w3.org/1999/xlink"> <defs><polygon id="path-1" points="0.00137332229 0.0171971383 2.065486 0.0171971383 2.065486 5.30962337 0.00137332229 5.30962337"></polygon></defs> <g id="Page-1-logo" stroke="none" stroke-width="1" fill="none" fill-rule="evenodd"> <g id="v4_home_logo" transform="translate(-67.000000, -131.000000)"> <g transform="translate(67.000000, 131.000000)"> <g id="Group-28"> <path d="M69.6703173,16.0926704 C69.6670173,16.0926704 69.6639173,16.0939704 69.6608173,16.0964704 C69.6685173,16.0952704 69.6732173,16.0941704 69.6703173,16.0926704" id="Fill-1" fill="#5DAE2E"></path> <path d="M81.8871669,21.279845 C80.288963,21.279845 78.9933077,19.9922727 78.9933077,18.404004 C78.9933077,16.8157353 80.288963,15.528163 81.8871669,15.528163 C83.4853707,15.528163 84.7810724,16.8157353 84.7810724,18.404004 C84.7810724,19.9922727 83.4853707,21.279845 81.8871669,21.279845 M88.9643234,17.8375127 L88.9573176,17.7139054 C88.628509,14.0571391 85.5375132,11.1905191 81.7722439,11.1905191 C77.787707,11.1905191 74.5576159,14.4004825 74.5576159,18.3601582 C74.5576159,22.1160962 77.4640484,25.1970119 81.1637137,25.5041169 C80.4702787,25.6454746 79.7190343,25.7239452 78.9049697,25.7239452 C70.4907261,25.7239452 69.4581826,16.2153569 69.6368073,16.0685127 C69.5953292,16.0744141 69.2532978,16.0705874 69.2532978,16.0705874 L63.1020202,16.0897671 C63.1020202,16.0897671 64.460635,30.8112091 78.9049697,28.7926892 C81.5639258,28.4210835 89.0480683,26.5718148 88.9643234,17.8375127" id="Fill-3" fill="#5DAE2E"></path> <path d="M81.9929173,5.60844324 C79.333822,5.98000286 71.7371692,8.42679141 71.820914,17.1610013 C71.820914,17.1610013 72.3997044,17.3223685 72.6345147,16.6448105 C73.4324335,14.3419615 75.4408245,8.67714118 81.9929173,8.67714118 C90.4725329,8.67714118 91.2445163,18.3343717 91.2566721,18.3343717 C91.2396911,18.3259345 91.6444036,18.3304989 91.6444036,18.3304989 L97.7957276,18.3113192 C97.7957276,18.3113192 96.4371128,3.58983116 81.9929173,5.60844324" id="Fill-5" fill="#5DAE2E"></path> <polygon id="Fill-7" fill="#5DAE2E" points="74.2557031 7.5915407 69.7504172 3.0301035 68.3839616 4.36299698 72.889201 8.92443418"></polygon> <g id="Group-11" transform="translate(79.708368, 0.028908)"> <mask id="mask-2" fill="white"><use xlink:href="#path-1"></use></mask> <g id="Clip-10"></g> <polygon id="Fill-9" fill="#5DAE2E" mask="url(#mask-2)" points="2.065486 4.86563291 1.88630456 0.0171925278 0.00137332229 0.0657871224 0.211176139 5.30962337"></polygon> </g> <polygon id="Fill-12" fill="#5DAE2E" points="93.1589554 1.10704849 90.3253183 5.93100715 91.9866671 6.87684976 94.820397 2.05284499"></polygon> <path d="M0,6.59830684 C0,6.1527027 0.288258492,5.76579014 0.86472908,5.43660095 C1.44124606,5.10787281 2.03873405,4.94327822 2.65830655,4.94327822 C3.42694946,4.94327822 3.88585253,5.21926232 4.0354797,5.77076948 L9.09584756,23.0210668 L11.818227,11.9452798 C12.0103993,11.1813672 12.693488,10.7994801 13.8680033,10.7994801 C15.0209909,10.7994801 15.6935476,11.1813672 15.8857664,11.9452798 L18.6080994,23.0210668 L23.6684673,5.77076948 C23.8175841,5.21926232 24.2769975,4.94327822 25.0456404,4.94327822 C25.6647026,4.94327822 26.2627009,5.10787281 26.8391715,5.43660095 C27.4156885,5.76579014 27.703947,6.1527027 27.703947,6.59830684 C27.703947,6.72560254 27.6824192,6.85289825 27.6398741,6.98019396 L21.2984192,26.999461 C20.9781475,27.9334086 20.0703629,28.3998521 18.5760398,28.3998521 C17.9354963,28.3998521 17.3589793,28.2775358 16.8465816,28.0338712 C16.3341375,27.7902067 16.0243513,27.4450652 15.9177332,26.999461 L13.8680033,18.4061479 L11.7862138,26.999461 C11.6790853,27.4450652 11.3698558,27.7902067 10.8574118,28.0338712 C10.3449213,28.2775358 9.7684507,28.3998521 9.12790721,28.3998521 C8.46583596,28.3998521 7.87878708,28.2775358 7.366343,28.0338712 C6.85394532,27.7902067 6.53362717,27.4450652 6.40552775,26.999461 L0.064026512,6.98019396 C0.0210173985,6.85289825 0,6.72560254 0,6.59830684" id="Fill-14" fill="#0B0B0B"></path> <path d="M33.1164746,26.9040146 L33.1164746,6.21636439 C33.1164746,5.79215294 33.3191788,5.47389062 33.7250048,5.26153132 C34.1303669,5.04967917 34.6217935,4.943269 35.1983105,4.943269 C35.7747811,4.943269 36.2656974,5.04967917 36.6715698,5.26153132 C37.0768855,5.47389062 37.2801001,5.79215294 37.2801001,6.21636439 L37.2801001,26.9040146 C37.2801001,27.3072944 37.0718747,27.6255568 36.6555632,27.8588016 C36.2392053,28.0925075 35.7532534,28.2089224 35.1983105,28.2089224 C34.6217935,28.2089224 34.1303669,28.0925075 33.7250048,27.8588016 C33.3191788,27.6255568 33.1164746,27.3072944 33.1164746,26.9040146" id="Fill-16" fill="#0B0B0B"></path> <path d="M48.4897783,24.5806213 L51.8206416,24.5806213 C54.0625902,24.5806213 55.1835645,23.360731 55.1835645,20.9204893 L55.1835645,12.2316928 C55.1835645,9.79191224 54.0625902,8.57156089 51.8206416,8.57156089 L48.4897783,8.57156089 L48.4897783,24.5806213 Z M44.3261528,26.9357994 L44.3261528,6.21633672 C44.3261528,5.87718887 44.4967973,5.57981208 44.8386432,5.32517456 C45.1799324,5.07058315 45.6178181,4.94324134 46.1517435,4.94324134 L51.8206416,4.94324134 C54.1051354,4.94324134 55.9307261,5.52706804 57.2973674,6.69375326 C58.6635911,7.86089952 59.3471901,9.70694086 59.3471901,12.2316928 L59.3471901,20.9204893 C59.3471901,23.4457946 58.6635911,25.2917437 57.2973674,26.4584289 C55.9307261,27.6255752 54.1051354,28.2088948 51.8206416,28.2088948 L46.1517435,28.2088948 C45.6178181,28.2088948 45.1799324,28.081599 44.8386432,27.8269615 C44.4967973,27.5723701 44.3261528,27.2754544 44.3261528,26.9357994 L44.3261528,26.9357994 Z" id="Fill-18" fill="#0B0B0B"></path> <path d="M101.881,21.1114514 L101.881,12.2316882 C101.881,9.72828283 102.564135,7.88726693 103.930822,6.70970095 C105.296953,5.53208887 107.080045,4.94323672 109.279449,4.94323672 C111.521397,4.94323672 113.351952,5.49525103 114.772227,6.59831145 C116.191899,7.7017868 116.902083,9.1658027 116.902083,10.9904514 C116.902083,11.7756644 116.741878,12.3112192 116.421606,12.5976692 C116.101381,12.8841191 115.567362,13.0273671 114.820247,13.0273671 C113.45356,13.0273671 112.759429,12.5926898 112.738411,11.7224132 C112.71693,11.4469362 112.690345,11.208251 112.658378,11.0063114 C112.626318,10.8049251 112.540764,10.5398679 112.402133,10.2106326 C112.263038,9.88195056 112.086872,9.60592035 111.873729,9.38314134 C111.660029,9.16036232 111.33971,8.96939571 110.912821,8.81024149 C110.485467,8.65113339 109.984065,8.57155628 109.407548,8.57155628 C107.165553,8.57155628 106.044625,9.79190763 106.044625,12.2316882 L106.044625,21.1114514 C106.044625,23.551693 107.186617,24.7715833 109.471574,24.7715833 C110.15471,24.7715833 110.725705,24.6656803 111.185119,24.4532749 C111.644022,24.2414688 111.974779,23.9391127 112.177947,23.5462526 C112.380652,23.1538536 112.519283,22.8037789 112.594305,22.4959362 C112.66891,22.1886008 112.71693,21.811693 112.738411,21.3660428 C112.802438,20.4962733 113.485619,20.0611811 114.788234,20.0611811 C115.535396,20.0611811 116.074285,20.204383 116.405599,20.4908329 C116.736403,20.7772828 116.902083,21.3133448 116.902083,22.0980968 C116.902083,24.0077169 116.191899,25.5354037 114.772227,26.6812033 C113.351952,27.8269569 111.510355,28.3998568 109.247343,28.3998568 C107.047985,28.3998568 105.270461,27.8110507 103.914769,26.6334847 C102.558567,25.4558727 101.881,23.6153639 101.881,21.1114514" id="Fill-20" fill="#0B0B0B"></path> <path d="M120.057639,27.063132 C120.057639,26.5966884 120.206802,26.1192258 120.506103,25.6309285 L130.018262,8.57155167 L121.915289,8.57155167 C121.509417,8.57155167 121.19462,8.39649126 120.970434,8.04641653 C120.746249,7.69629571 120.634156,7.26664388 120.634156,6.75741494 C120.634156,6.2695787 120.740821,5.84536725 120.954474,5.48431955 C121.167618,5.12377901 121.487936,4.94327822 121.915289,4.94327822 L134.085801,4.94327822 C134.918517,4.94327822 135.334875,5.31474563 135.334875,6.0572194 C135.334875,6.52417011 135.174763,7.02297933 134.854444,7.5530938 L125.374252,24.5806121 L134.598246,24.5806121 C134.98259,24.5806121 135.297387,24.7665994 135.543054,25.1375596 C135.788257,25.5090731 135.911392,25.9283052 135.911392,26.3947488 C135.911392,26.8617456 135.788257,27.2809777 135.543054,27.651938 C135.297387,28.0234054 134.98259,28.2089316 134.598246,28.2089316 L121.306806,28.2089316 C120.474043,28.2089316 120.057639,27.8269523 120.057639,27.063132" id="Fill-22" fill="#0B0B0B"></path> <path d="M140.987864,26.9040146 L140.987864,6.24817679 C140.987864,5.82396534 141.190476,5.50026264 141.596348,5.27748362 C142.00171,5.05465851 142.49309,4.943269 143.069607,4.943269 C143.838343,4.943269 144.425345,5.08153768 144.831125,5.35701463 C145.236534,5.63299873 145.684905,6.22729126 146.176331,7.13933895 L152.35772,19.0108509 L152.35772,6.21636439 C152.35772,5.79215294 152.560331,5.47389062 152.966204,5.26153132 C153.371519,5.04967917 153.862946,4.943269 154.439463,4.943269 C155.015934,4.943269 155.506896,5.04967917 155.912722,5.26153132 C156.318131,5.47389062 156.521299,5.79215294 156.521299,6.21636439 L156.521299,26.9040146 C156.521299,27.3072944 156.313027,27.6255568 155.896762,27.8588016 C155.480358,28.0925075 154.994499,28.2089224 154.439463,28.2089224 C153.307447,28.2089224 152.506744,27.7742913 152.037355,26.9040146 L145.151443,14.109482 L145.151443,26.9040146 C145.151443,27.3072944 144.943218,27.6255568 144.526906,27.8588016 C144.110548,28.0925075 143.624643,28.2089224 143.069607,28.2089224 C142.49309,28.2089224 142.00171,28.0925075 141.596348,27.8588016 C141.190476,27.6255568 140.987864,27.3072944 140.987864,26.9040146" id="Fill-24" fill="#0B0B0B"></path> <path d="M163.799211,26.9040146 L163.799211,6.21636439 C163.799211,5.79215294 164.001915,5.47389062 164.407695,5.26153132 C164.81315,5.04967917 165.30453,4.943269 165.881047,4.943269 C166.457564,4.943269 166.948434,5.04967917 167.354307,5.26153132 C167.759622,5.47389062 167.96279,5.79215294 167.96279,6.21636439 L167.96279,26.9040146 C167.96279,27.3072944 167.754658,27.6255568 167.338254,27.8588016 C166.921896,28.0925075 166.43599,28.2089224 165.881047,28.2089224 C165.30453,28.2089224 164.81315,28.0925075 164.407695,27.8588016 C164.001915,27.6255568 163.799211,27.3072944 163.799211,26.9040146" id="Fill-26" fill="#0B0B0B"></path> </g> </g> </g> </g></svg>